<svg width="216" height="125" viewBox="0 0 216 125" fill="none" xmlns="http://www.w3.org/2000/svg">
<path d="M199.506 104.458C197.582 104.482 201.88 104.428 203.624 104.218C206.509 103.871 206.982 103.767 207.842 103.425C209.536 102.753 210.733 101.629 211.339 100.399C211.712 99.6419 211.944 97.4432 212.15 94.9943C212.609 89.5409 211.796 85.9209 211.096 81.02C210.94 81.0201 210.777 81.0352 210.621 81.0353C201.333 81.0405 197.606 75.5023 196.685 73.8039C195.415 71.4667 195.729 68.2481 196.685 66.7215C197.774 64.9844 200.137 64.2322 204.691 62.8916C204.691 62.8916 204.694 60.631 204.691 60.6281C192.723 48.5351 164.629 47.1276 164.318 47.0677C164.244 47.0527 164.169 47.0302 164.103 47.0077C163.717 46.9177 162.693 46.9333 161.447 46.9716C160.72 46.9946 159.904 47.0176 159.043 47.0181C156.031 47.0198 151.721 46.7365 149.086 44.2723C145.442 40.8615 140.518 17.9511 138.531 8.01421C137.277 6.67681 136.082 5.66264 134.991 5.06938C131.347 3.10188 117.697 1.98199 97.5334 1.99341C75.0332 2.00615 53.6094 3.35638 50.2049 4.50847C46.9859 5.60032 42.2306 18.5029 38.0382 29.8867C33.6828 41.7141 29.92 51.9249 26.7384 53.6256C23.8757 55.1533 20.0557 55.8997 16.3617 56.6234C12.816 57.317 8.36333 55.7163 7.72802 59.2218C7.06643 62.8723 13.642 61.7368 15.6613 64.2916C18.4674 67.8458 17.8588 80.31 15.3532 83.574C14.6341 84.5141 12.6244 85.7556 3.62581 85.7907C3.5163 88.918 3.62883 91.1742 3.63081 94.6237C3.6319 96.5335 3.83037 99.3519 4.18839 100.498C4.68885 102.101 5.33484 102.998 6.18818 103.366C8.08778 104.192 10.1849 104.152 10.1849 104.152L13.5918 104.052C13.5918 104.052 20.7729 104.109 25.491 104.143C24.3446 97.1754 26.3137 89.6644 30.962 84.1289C31.8664 83.0534 32.8599 82.0681 33.9203 81.203C38.0727 77.8103 43.1014 76.0108 48.4724 76.0077C57.6787 76.0025 66.0943 81.3502 69.9121 89.6322C72.1255 94.4271 72.6848 99.5987 71.8419 104.44C90.9074 104.542 111.894 104.643 131.665 104.685C130.296 97.5515 132.257 89.7623 137.031 84.0689C137.936 82.9934 138.929 82.008 139.99 81.1429C144.142 77.7502 149.171 75.9507 154.542 75.9477C163.748 75.9425 172.164 81.2901 175.974 89.5722C178.225 94.4572 178.769 99.7417 177.859 104.659C187.444 104.616 199.521 104.458 199.521 104.458C199.521 104.458 201.431 104.434 199.506 104.458ZM75.772 62.2429C71.3432 62.2454 66.869 60.7369 66.8671 57.3616C66.8656 54.8057 69.8321 53.2103 74.6096 53.2076C77.896 53.2057 81.9766 54.0454 83.6988 55.9162C84.2852 56.5549 84.5675 57.299 84.516 58.0583C84.3174 60.93 79.8374 62.2406 75.7646 62.2429L75.772 62.2429ZM86.7658 44.6068C85.4022 47.0357 70.0921 46.4551 63.0297 46.4591C56.8427 46.4626 46.5001 46.7513 44.5313 46.4589C42.7943 44.5279 46.9097 28.2504 46.9467 28.0925C48.6714 21.3258 50.9548 14.5534 53.5582 13.6649C55.0638 13.1453 74.3399 9.14058 82.8118 9.13578C85.9053 9.13403 86.4602 9.77021 86.8683 10.0556C88.3279 13.711 88.9509 42.5322 87.4317 45.2319L86.7658 44.6068ZM106.655 62.2179C102.226 62.2204 97.7521 60.7119 97.7502 57.3366C97.7488 54.7807 100.715 53.1853 105.493 53.1826C108.779 53.1807 112.86 54.0204 114.582 55.8912C115.168 56.5299 115.451 57.274 115.399 58.0332C115.2 60.905 110.72 62.2156 106.648 62.2179L106.655 62.2179ZM137.031 45.8739C135.874 47.16 127.1 48.5471 120.913 48.5506C113.851 48.5546 98.2544 46.6993 96.8806 44.2719C95.3583 41.574 93.3394 13.6829 96.543 11.4559C96.9582 11.17 97.2448 10.9819 100.338 10.9802C108.803 10.9754 126.848 13.4863 128.354 14.0041C130.966 14.8972 134.645 21.9387 136.369 28.7034C136.414 28.8688 138.773 41.4489 137.031 43.3819L137.031 45.8739Z" fill="#F16542"/>
<path d="M174.603 89.0731C171.035 81.4173 163.149 76.4766 154.521 76.4766C149.491 76.4766 144.781 78.1309 140.893 81.2689C139.907 82.0627 138.979 82.9677 138.134 83.9618C132.948 90.0524 131.279 98.732 133.89 106.069C136.984 114.756 145.797 120.824 155.337 120.824C158.638 120.824 161.784 120.105 164.677 118.688C175.33 113.473 179.774 100.193 174.595 89.0806L174.603 89.0731ZM160.115 109.496C158.534 110.268 156.828 110.661 155.033 110.661C149.884 110.661 145.114 107.375 143.438 102.671C142.021 98.6949 142.919 93.999 145.723 90.7052C146.183 90.1711 146.687 89.674 147.229 89.2363C149.335 87.5375 151.895 86.6325 154.625 86.6325C159.299 86.6325 163.572 89.318 165.508 93.4723C168.312 99.4813 165.894 106.67 160.115 109.496Z" fill="#A06554"/>
<path d="M165.39 93.5063C163.477 89.3944 159.239 86.7427 154.598 86.7427C151.896 86.7427 149.37 87.6322 147.289 89.3105C146.761 89.7385 146.265 90.2252 145.812 90.7539C143.018 94.0266 142.128 98.6924 143.53 102.636C145.191 107.302 149.933 110.558 155.06 110.558C156.831 110.558 158.517 110.172 160.07 109.408C165.793 106.614 168.176 99.4728 165.39 93.4979V93.5063Z" fill="#F16542"/>
<path d="M68.5336 89.0731C64.9654 81.4173 57.0795 76.4766 48.4518 76.4766C43.4221 76.4766 38.7114 78.1309 34.8241 81.2689C33.8374 82.0627 32.9101 82.9677 32.0644 83.9618C26.8789 90.0524 25.2097 98.732 27.821 106.069C30.9145 114.756 39.7277 120.824 49.2679 120.824C52.5691 120.824 55.7145 120.105 58.6077 118.688C69.2607 113.473 73.7043 100.193 68.5262 89.0806L68.5336 89.0731ZM54.0454 109.496C52.4652 110.268 50.759 110.661 48.9637 110.661C43.8153 110.661 39.0452 107.375 37.3686 102.671C35.9517 98.6949 36.8493 93.999 39.6535 90.7052C40.1135 90.1711 40.6179 89.674 41.1595 89.2363C43.2663 87.5375 45.8257 86.6325 48.5557 86.6325C53.2293 86.6325 57.5024 89.318 59.4386 93.4723C62.2428 99.4813 59.8244 106.67 54.0454 109.496Z" fill="#A06554"/>
<path d="M59.3338 93.5063C57.4205 89.3944 53.1828 86.7427 48.5422 86.7427C45.8402 86.7427 43.3143 87.6322 41.2332 89.3105C40.7045 89.7385 40.2094 90.2252 39.7563 90.7538C36.9619 94.0266 36.0724 98.6923 37.4737 102.636C39.1353 107.302 43.8765 110.558 49.0038 110.558C50.7744 110.558 52.4611 110.172 54.0136 109.408C59.7282 106.614 62.1198 99.4727 59.3338 93.4979V93.5063Z" fill="#F16542"/>
<path d="M80.6532 56.4137C79.8038 55.5005 77.3936 54.8369 74.925 54.8369C72.6952 54.8369 70.4442 55.4156 70.4442 56.7056C70.4442 58.2771 73.1146 59.0946 75.7531 59.0946C78.5934 59.0946 80.8762 58.2293 80.9559 57.1304C80.9718 56.8861 80.8762 56.6526 80.6532 56.4137Z" fill="#A06554"/>
<path d="M111.536 56.4137C110.687 55.5005 108.277 54.8369 105.808 54.8369C103.578 54.8369 101.327 55.4156 101.327 56.7056C101.327 58.2771 103.998 59.0946 106.636 59.0946C109.476 59.0946 111.759 58.2293 111.839 57.1304C111.855 56.8861 111.759 56.6526 111.536 56.4137Z" fill="#A06554"/>
<path d="M197.43 67.5077C196.769 68.5463 196.985 70.3787 197.971 72.1814C198.795 73.6799 202.126 78.5539 210.605 78.5539C210.657 78.5613 210.753 78.5539 210.827 78.5539C209.685 71.6843 207.919 66.4691 205.709 63.3831C201.272 64.6145 198.342 66.0686 197.422 67.5077C196.502 68.9469 197.43 67.5077 197.43 67.5077Z" fill="#A06554"/>
<path d="M3.6738 83.1381C12.2644 83.101 13.8742 81.8992 14.1635 81.5283C16.2333 78.8576 16.8342 67.2626 14.4899 64.3397C12.524 61.8842 8.24358 60.1705 6.69312 59.6067C5.6026 62.2328 4.13374 72.4184 3.6738 83.1381Z" fill="#A06554"/>
<path d="M159.046 44.9554C159.885 44.9554 160.686 44.9331 161.406 44.9109C161.769 44.9034 162.11 44.8886 162.422 44.8812C160.842 42.8708 158.549 38.9538 155.137 33.0487C150.716 25.4003 145.337 16.0901 140.53 10.1924C143.572 24.7994 147.518 40.2521 150.092 42.626C152.348 44.7106 156.279 44.948 159.039 44.948L159.046 44.9554Z" fill="#A06554"/>
<path d="M127.742 15.5717C126.656 15.2052 110.037 12.9463 102.174 12.9463C99.5824 12.9463 96.74 12.4065 96.6667 12.4598C96.1337 12.9262 97.71 17.9905 97.8699 27.799C98.0032 35.9551 97.8174 42.2014 98.3504 43.1343C99.1167 43.9672 107.326 45.711 119.673 45.711C128.356 45.711 134.672 44.211 135.585 43.7779C136.165 42.0721 133.446 27.3259 130.101 19.3298C128.762 16.1247 127.955 15.645 127.742 15.5717Z" fill="#BCDAF2"/>
<path d="M80.4712 11.9333C72.684 11.9333 56.2252 14.2427 55.1496 14.6173C54.9384 14.6923 54.1399 15.1895 52.8134 18.4593C49.5005 26.6339 46.8146 41.7091 47.3822 43.453C48.2863 43.9026 53.7241 44.359 62.3164 44.359C74.545 44.359 82.6555 43.453 83.4343 42.581C83.949 41.6478 84.5957 35.4556 84.7277 27.1175C84.8861 17.0969 84.147 12.7372 83.6058 12.2535C83.5332 12.2058 83.0251 11.9402 80.4646 11.9402L80.4712 11.9333Z" fill="#BCDAF2"/>
<path d="M118.067 32.5439C118.022 32.5439 118.022 32.6185 118.067 32.6185C118.112 32.6185 118.112 32.5439 118.067 32.5439Z" fill="#E3F4FC"/>
<path d="M72.8142 32.2996C72.7695 32.2996 72.7695 32.3741 72.8142 32.3741C72.8589 32.3741 72.8589 32.2996 72.8142 32.2996Z" fill="#E3F4FC"/>
<path d="M197.608 65.9062C197.37 65.9572 197.088 66.1135 196.964 66.3202" stroke="black" stroke-linecap="round"/>
<path d="M195.9 65.8484L195.96 65.9081" stroke="black" stroke-linecap="round"/>
<path d="M195.959 65.9661L195.9 66.0838" stroke="black" stroke-linecap="round"/>
<path d="M196.254 65.7893C196.208 66.0302 196.1 66.2652 196.018 66.4956" stroke="black" stroke-linecap="round"/>
<path d="M196.018 67.614V67.6737" stroke="black" stroke-linecap="round"/>
<path d="M196.136 68.0851C196.136 67.706 196.247 67.3389 196.312 66.9668" stroke="black" stroke-linecap="round"/>
<path d="M196.371 68.3205C196.393 68.1067 196.554 67.8502 196.62 67.6469C196.753 67.2361 196.908 66.8336 197.078 66.437" stroke="black" stroke-linecap="round"/>
<path d="M196.548 68.2027C196.651 68.1899 196.822 67.474 196.96 67.3199C197.116 67.1455 197.23 66.7712 197.326 66.5547C197.406 66.3754 197.557 66.0192 197.725 65.9203C197.95 65.7877 198.147 65.6044 198.376 65.4658C199.293 64.9107 200.309 64.4702 201.257 63.9648" stroke="black" stroke-linecap="round"/>
<path d="M198.843 64.6711C198.019 65.0589 197.406 65.9311 197.006 66.7312C196.911 66.9214 196.842 67.1689 196.842 67.3787C196.842 67.5735 196.817 67.9641 196.738 68.1439C196.653 68.3338 196.724 68.7008 196.724 68.909C196.724 69.2606 196.842 69.6465 196.842 70.0274" stroke="black" stroke-linecap="round"/>
<path d="M197.254 66.5547C197.141 66.7953 197.13 67.0386 197.074 67.2904C197.027 67.5055 196.901 67.7797 196.901 67.9968C196.901 68.3793 196.901 69.5271 196.901 69.1445" stroke="black" stroke-linecap="round"/>
<path d="M196.96 67.4375C196.872 68.313 196.814 69.279 197.313 70.0273" stroke="black" stroke-linecap="round"/>
<path fill-rule="evenodd" clip-rule="evenodd" d="M52.8558 1.2752C46.1973 3.00996 43.2214 7.58922 34.9702 28.8023C26.2058 51.3328 24.4054 53.3268 12.8303 53.3268C4.60392 53.3268 2.02043 59.2289 0.935538 80.4988C-0.282522 104.363 0.813022 106.595 13.7554 106.595C22.5925 106.595 23.6135 107.03 26.5645 112.044C30.2737 118.344 38.4663 123.87 44.8656 124.386C56.826 125.35 59.706 124.322 67.3358 116.361L74.9904 108.37L102.986 108.381L130.982 108.393L133.935 113.584C142.129 127.985 166.212 128.445 175.342 114.372C178.758 109.104 179.587 108.807 193.288 107.937C213.604 106.644 215.323 105.419 215.323 92.2266C215.323 80.6622 212.445 66.3917 209.297 62.3451C204.98 56.7999 191.196 49.8325 178.719 46.8903L165.542 43.7848L155.091 26.8047C138.116 -0.772065 142.135 0.999982 95.7755 0.648414C74.1221 0.485059 54.8089 0.76738 52.8558 1.2752ZM135.536 6.56293C136.671 7.69931 137.848 11.6944 138.154 15.4409C138.459 19.1874 140.41 27.6837 142.488 34.3191C146.893 48.3836 149.059 49.7756 166.544 49.7756C177.19 49.7756 192.409 53.9341 199.343 58.7406C201.622 60.3209 201.432 60.9885 198.011 63.3874C190.077 68.9503 195.211 80.6444 206.585 82.9189C211.797 83.9612 211.926 84.2347 211.413 93.0736L210.884 102.156L196.402 102.669L181.922 103.182L180.686 95.8666C178.137 80.7722 162.712 70.5483 148.433 74.492C138.608 77.2051 132.349 84.2808 129.835 95.5168L127.665 105.212L119.755 104.128C115.403 103.532 103.666 103.044 93.6732 103.044H75.5053L74.3245 95.6677C72.794 86.0937 62.7157 75.6745 53.2961 73.9309C39.1393 71.3083 23.5815 83.5724 23.5655 97.3652L23.5584 103.23L14.2365 102.692L4.91465 102.156V95.1262C4.91465 88.5991 5.33369 88.0114 10.7759 86.8981C18.4287 85.332 18.601 85.0958 19.5917 74.7867C20.3393 67.0007 19.8989 65.4861 15.7778 61.6668L11.1168 57.3468L18.2956 56.3844C22.2427 55.8553 26.5592 54.52 27.8856 53.4192C29.2119 52.3183 34.0078 41.9293 38.5427 30.3328C47.2555 8.05443 48.4629 6.24332 55.5192 4.8477C64.8908 2.9922 133.439 4.4624 135.536 6.56293ZM64.5481 10.8226C58.2838 11.6553 52.4847 13.3706 51.659 14.6312C49.4093 18.0777 45.1195 33.8397 44.5122 40.8977L43.9778 47.1122L64.1432 47.6165C77.755 47.9557 85.1326 47.4372 86.8425 46.0167C88.7868 44.4027 89.2608 39.9406 88.872 26.8687L88.3677 9.8247L82.1531 9.56546C78.7351 9.42342 70.8124 9.98806 64.5481 10.8226ZM95.914 11.6909C94.1917 13.4878 94.2254 42.9147 95.9531 45.6296C97.679 48.3427 120.538 50.5462 130.87 48.9979C138.582 47.8402 138.972 47.5047 138.972 41.9985C138.972 34.7505 134.079 17.6941 131.113 14.6099C128.601 11.998 98.05 9.46426 95.914 11.6909ZM84.8165 28.6158V43.5611L66.6167 44.0671C48.5464 44.5696 48.4168 44.543 48.4168 40.3934C48.4168 34.5943 53.4488 18.2073 55.6452 16.849C57.5913 15.6469 80.0988 12.7527 83.0409 13.3262C84.0566 13.5233 84.8165 20.0681 84.8165 28.6158ZM123.88 15.8067C128.345 16.746 129.697 18.3635 132.236 25.8051C133.903 30.688 135.3 36.844 135.343 39.4861C135.41 43.6268 134.528 44.456 128.944 45.5036C125.382 46.1712 117.193 46.0078 110.744 45.1396L99.0213 43.5611L98.5064 28.9124L97.9897 14.2637L108.272 14.4732C113.926 14.5886 120.95 15.1888 123.88 15.8067ZM152.156 29.4184C156.623 36.7783 160.279 43.2237 160.279 43.7422C160.279 44.2606 158.083 44.4311 155.397 44.1221C151.268 43.6481 150.07 42.1903 147.639 34.6831C143.956 23.3086 142.243 16.0393 143.244 16.0393C143.678 16.0393 147.689 22.0603 152.156 29.4184ZM68.062 54.9941C63.9976 57.5652 69.0652 62.2048 75.9385 62.2048C82.732 62.2048 86.7377 58.6217 83.531 55.4149C81.0665 52.9504 71.6966 52.6947 68.062 54.9941ZM98.8082 55.905C97.1498 60.2268 99.7759 62.2048 107.171 62.2048C114.664 62.2048 118.642 57.9345 113.929 54.9497C109.918 52.4106 99.9073 53.0427 98.8082 55.905ZM79.0796 58.0428C77.8775 58.5293 75.4804 58.5595 73.7528 58.1085C72.0251 57.6575 73.0088 57.2598 75.9385 57.2243C78.8683 57.1888 80.2817 57.5563 79.0796 58.0428ZM109.265 58.0428C108.063 58.5293 105.666 58.5595 103.938 58.1085C102.21 57.6575 103.194 57.2598 106.124 57.2243C109.053 57.1888 110.467 57.5563 109.265 58.0428ZM12.7965 64.7368C13.9524 66.1289 14.6485 70.7241 14.3448 74.9465C13.8424 81.9424 13.3363 82.6757 8.65406 83.2101C3.61847 83.7854 3.53856 83.6629 4.63943 76.9956C5.25734 73.2561 5.77226 68.3963 5.78292 66.1999C5.80423 61.7006 9.61643 60.9069 12.7965 64.7368ZM208.29 70.3761C210.829 77.0541 210.406 78.4924 206.092 77.8656C203.943 77.5531 200.791 74.9003 199.089 71.9706L195.99 66.6438L201.287 66.2656C205.495 65.9655 206.933 66.8107 208.29 70.3761ZM59.129 80.8788C65.7626 84.3092 69.724 91.9674 69.724 101.357C69.724 107.369 68.6124 109.837 63.6869 114.763C58.7401 119.709 56.3058 120.8 50.1995 120.8C40.8865 120.8 33.2976 116.435 29.8014 109.068C26.4065 101.912 26.4012 97.0811 29.7837 89.9556C34.8743 79.2275 48.0528 75.1507 59.129 80.8788ZM165.665 80.8788C173.087 84.7176 176.86 92.9369 175.745 102.836C172.808 128.891 133.645 125.78 133.645 99.4924C133.645 83.0787 150.721 73.1514 165.665 80.8788ZM38.5711 89.6467C29.5493 98.6667 36.0142 113.697 48.9139 113.697C56.929 113.697 62.6216 107.619 62.6216 99.0627C62.6216 86.7205 47.4384 80.7776 38.5711 89.6467ZM145.107 89.6467C136.085 98.6667 142.55 113.697 155.45 113.697C167.927 113.697 173.785 98.6312 164.798 89.6467C162.051 86.8981 158.411 85.2876 154.953 85.2876C151.494 85.2876 147.854 86.8981 145.107 89.6467ZM55.5192 92.39C57.4723 94.3431 59.0704 97.5392 59.0704 99.4924C59.0704 103.807 53.0795 110.146 49.001 110.146C40.2331 110.146 36.2291 96.6851 43.486 91.6034C48.7009 87.9492 51.2453 88.1161 55.5192 92.39ZM163.387 93.7962C166.601 97.8855 166.118 102.532 162.055 106.595C153.614 115.036 141.369 106.089 146.364 95.1297C149.42 88.418 158.594 87.7006 163.387 93.7962Z" fill="black"/>
</svg>
